<?xml version="1.0" encoding="utf-8"?>
<!-- Generator: Adobe Illustrator 21.0.0, SVG Export Plug-In . SVG Version: 6.00 Build 0)  -->
<svg version="1.1" id="Layer_1" xmlns="http://www.w3.org/2000/svg" xmlns:xlink="http://www.w3.org/1999/xlink" x="0px" y="0px"
	 viewBox="0 0 437.6 800" style="enable-background:new 0 0 437.6 800;" xml:space="preserve">
<title>CodeBerry_Icon_CMYK_Dark</title>
<path d="M400,400.1l-90.7-90.7l90.6-90.6C450,168.8,450,87.6,400,37.6c0,0,0,0,0,0c0,0,0,0,0,0l0,0c-50-50-131-50-181,0L128.4,128v0
	l-0.2,0.2l-90.7,90.7c-50,50-50,131.1,0,181.1l90.7,90.7l0,0l-90.6,90.6c-50,50-50,131.2,0,181.2c50,50,131.2,50,181.2,0l90.6-90.6
	l90.7-90.7C450.1,531.2,450.1,450.1,400,400.1z"/>
</svg>
